<?xml version="1.0" encoding="utf-8"?>
<!-- Generator: Adobe Illustrator 23.0.5, SVG Export Plug-In . SVG Version: 6.00 Build 0)  -->
<svg version="1.1" id="Capa_1" xmlns="http://www.w3.org/2000/svg" xmlns:xlink="http://www.w3.org/1999/xlink" x="0px" y="0px"
	 viewBox="0 0 1200 1200" style="enable-background:new 0 0 1200 1200;" xml:space="preserve">
<style type="text/css">
	.st0{fill:#3C6B3A;}
	.st1{fill:#FFFDFE;}
	.st2{fill:none;stroke:#FFFFFF;stroke-width:13;stroke-miterlimit:10;}
	.st3{fill:#FFFFFF;stroke:#FFFFFF;stroke-width:5;stroke-miterlimit:10;}
	.st4{fill:none;stroke:#FFFFFF;stroke-width:8;stroke-miterlimit:10;}
	.st5{fill:#FFFFFF;}
	.st6{fill:none;stroke:#FFFFFF;stroke-width:11;stroke-miterlimit:10;}
	.st7{fill:#FEFFFD;}
</style>
<g>
	<g>
		<path class="st0" d="M376.89,615.23l-2.59,5.6c-0.74,2.16-3.65,3.24-8.71,3.24h-19.65c-2.53,0-2.53-2,0-5.99l42.08-91.24
			c3.09-6.68,6.18-6.68,9.27,0l42.07,91.24c2.53,3.99,2.53,5.99,0,5.99h-19.65c-5.07,0-7.97-1.08-8.71-3.24l-2.59-5.6H376.89z
			 M398.67,594.11l-6.02-12.96l-6.02,12.96H398.67z"/>
		<path class="st0" d="M489.95,624.06c-30.89,0-46.33-16.37-46.33-49.11c0-32.74,15.44-49.1,46.33-49.1h28.55
			c2.59,0,3.89,1.41,3.89,4.22v16.7c0,2.36-1.3,3.73-3.89,4.13h-28.55c-12.29,0-18.44,8.02-18.44,24.06
			c0,16.04,6.15,24.06,18.44,24.06h14.09v-10.8h-10.1c-2.66-0.39-3.99-1.77-3.99-4.12v-16.7c0-2.82,1.33-4.22,3.99-4.22h33.83
			c2.59,0,3.89,1.41,3.89,4.22v52.45c-0.37,2.81-1.67,4.22-3.89,4.22H489.95z"/>
		<path class="st0" d="M613.86,591.06l22.98,27.01c3.77,3.99,3.77,5.99,0,5.99h-23.35c-3.21,0-6.12-1.08-8.71-3.24l-24.28-28.68
			h-2.5v27.2c0,3.15-1.42,4.72-4.26,4.72h-20.2c-2.23,0-3.34-1.41-3.34-4.22v-89.77c0-2.81,1.33-4.22,3.98-4.22h51.62
			c18.53,0,27.8,9.13,27.8,27.4v9.04C633.6,578.33,627.02,587.92,613.86,591.06 M577.99,568.58h21.5c4.02,0,6.03-2.03,6.03-6.09
			v-8.25c0-3.01-1.98-4.52-5.93-4.52h-21.59V568.58z"/>
		<path class="st0" d="M647.96,574.96c0-34.05,15.44-51.07,46.34-51.07c30.89,0,46.34,17.02,46.34,51.07
			c0,34.05-15.45,51.07-46.34,51.07C663.41,626.03,647.96,609,647.96,574.96 M694.3,599.51c12.29,0,18.44-8.18,18.44-24.55
			c0-16.37-6.15-24.55-18.44-24.55c-12.29,0-18.44,8.18-18.44,24.55C675.86,591.33,682,599.51,694.3,599.51"/>
		<path class="st0" d="M786.97,563.76l-0.09,56.08c0,2.36-1.33,3.76-3.99,4.22h-19.65c-2.23,0-3.55-1.41-3.98-4.22v-89.77
			c0-2.81,1.05-4.22,3.15-4.22h23.08c4.45,0,7.35,1.08,8.71,3.24l16.03,22.78l16.03-22.78c1.36-2.16,4.26-3.24,8.71-3.24h22.43
			c2.53,0,3.8,1.41,3.8,4.22v89.77c0,2.36-1.33,3.76-3.99,4.22h-19.83c-2.23,0-3.56-1.41-3.99-4.22v-55.98l-15.94,21.21
			c-4.82,6.48-9.64,6.48-14.46,0L786.97,563.76z"/>
		<path class="st0" d="M902.72,615.23l-2.6,5.6c-0.74,2.16-3.65,3.24-8.71,3.24h-19.65c-2.54,0-2.54-2,0-5.99l42.07-91.24
			c3.09-6.68,6.18-6.68,9.27,0l42.07,91.24c2.53,3.99,2.53,5.99,0,5.99h-19.65c-5.07,0-7.97-1.08-8.71-3.24l-2.59-5.6H902.72z
			 M924.5,594.11l-6.02-12.96l-6.02,12.96H924.5z"/>
		<path class="st0" d="M1029.5,592.14h-25.3v27.2c0,3.15-1.42,4.72-4.26,4.72h-20.2c-2.22,0-3.34-1.41-3.34-4.22v-89.77
			c0-2.81,1.33-4.22,3.99-4.22H1032c18.53,0,27.8,9.13,27.8,27.4v9.04C1059.81,582.19,1049.71,592.14,1029.5,592.14 M1004.2,568.58
			h21.5c4.02,0,6.03-2.03,6.03-6.09v-8.25c0-3.01-1.98-4.52-5.93-4.52h-21.59V568.58z"/>
		<path class="st0" d="M1099.28,624.06h-20.58c-2.59,0-3.89-1.41-3.89-4.22v-16.7c0-2.36,1.3-3.73,3.89-4.12h41.52
			c3.95,0,5.93-1.31,5.93-3.93v-4.81c0-3.6-2.01-5.4-6.02-5.4l-17.52-0.1c-18.53,0-27.8-8.84-27.8-26.52v-5.89
			c0-17.68,8.68-26.52,26.04-26.52h44.21c2.59,0,3.89,1.41,3.89,4.22v16.7c0,2.36-1.3,3.73-3.89,4.13h-36.79
			c-4.02,0-6.03,1.51-6.03,4.51v4.32c0,3.47,1.98,5.21,5.93,5.21h7.41c25.33,0.13,38.21,9.79,38.65,28.97v2.16
			c0,18.27-10.04,27.63-30.12,28.09h-24.84V624.06z"/>
	</g>
	<path class="st0" d="M50.04,701.33h193.44c34.26,0,62.03-27.9,62.03-62.32V446.52H111.15c-33.75,0-61.11,27.49-61.11,61.39V701.33z
		"/>
	<g>
		<path class="st7" d="M245.77,498.9c-0.12,1.78-0.24,3.62-0.39,5.54c13.19-2.02,28.21-8.15,44.98-18.35v-24.46h-37.04
			c-0.8,2.2-1.57,4.41-2.27,6.64C246.95,481.38,246.43,489.11,245.77,498.9z"/>
		<path class="st7" d="M241.76,530.88c-2.88,14.68-5.84,23.32-8.44,30.94c-2.85,8.34-5.31,15.55-6.82,28.83
			c-1.65,14.5-1.4,29.3,0.73,43.99l0.71,2.94c6.76-0.39,14.69-1.55,22.49-2.7c12.91-1.9,26.78-3.93,39.94-3.69V497.82
			c-16.94,9.71-32.21,15.34-46,16.96C243.79,519.41,242.98,524.67,241.76,530.88z"/>
		<path class="st7" d="M105.19,572.99c13.12-10.3,20.41-13.93,26.88-17.14c6.24-3.1,11.62-5.78,21.61-14.33
			c7.58-6.5,13.08-12.33,17.93-17.47c9.35-9.92,16.74-17.75,30.93-20.55c10.12-2,18.08-0.38,22.84,0.59c0.51,0.1,0.99,0.2,1.43,0.28
			c2.7,0.51,5.52,0.78,8.44,0.82c0.2-2.45,0.36-4.75,0.51-6.96c0.67-10.04,1.26-18.71,5.72-32.96c0.38-1.22,0.79-2.43,1.2-3.64
			H119.06c-25.1,0-46.19,17.25-52.17,40.59c7.84,25.93,19.67,48.51,35.25,67.22C103.16,570.67,104.18,571.84,105.19,572.99z"/>
		<path class="st7" d="M100.73,615.66c10.7-2.94,22.13-3.79,34.13-2.55c-1.6-1.29-3.19-2.57-4.78-3.83
			c-8.78-7.02-17.21-13.77-25.85-22.56c-3.63,3.07-6.62,5.77-9.34,8.24c-7.02,6.36-12.56,11.38-22.77,16.78
			c-2.27,1.2-4.59,2.31-6.93,3.37v18.24c1.44-0.88,2.88-1.79,4.36-2.71C78.46,625.04,87.68,619.25,100.73,615.66z"/>
		<path class="st7" d="M217.35,636.54l-0.03-0.22c-2.29-15.62-2.56-31.37-0.8-46.81c1.63-14.36,4.26-22.04,7.3-30.94
			c2.5-7.32,5.34-15.62,8.09-29.63c1.02-5.18,1.74-9.69,2.27-13.71c-3.16-0.1-6.24-0.42-9.24-0.99c-0.48-0.09-0.99-0.2-1.55-0.31
			c-4.28-0.87-10.76-2.18-18.9-0.58c-11.03,2.18-16.5,7.98-25.57,17.59c-5.02,5.33-10.72,11.36-18.7,18.21
			c-10.94,9.37-17.12,12.45-23.68,15.7c-6.2,3.08-12.61,6.27-24.46,15.5c8.05,8.09,16,14.46,24.28,21.08
			c7.9,6.31,15.96,12.77,24.46,20.99c6.74,4.67,14.46,8.34,20.83,6.84c0.46-0.11,0.96-0.25,1.5-0.4c3.1-0.86,7.79-2.16,13.81-1.14
			c7.66,1.3,12.75,5.69,14.42,7.13l0.23,0.2c1.36,1.15,3.4,1.87,5.94,2.27L217.35,636.54z"/>
		<path class="st7" d="M251.88,644.82c-7.86,1.15-15.1,2.22-21.56,2.7l9.26,38.54c25.06-1.77,45.44-20.49,49.88-44.83
			C277.27,641.09,264.12,643.03,251.88,644.82z"/>
		<path class="st7" d="M205.12,642.73l-0.32-0.27c-1.27-1.09-4.63-4-9.53-4.83c-3.81-0.64-6.8,0.19-9.45,0.92
			c-0.68,0.19-1.31,0.36-1.88,0.5c-2.32,0.55-4.72,0.72-7.2,0.55c0.8,0.96,1.59,1.92,2.4,2.92c10.83,13.43,20.27,28.09,28.15,43.71
			h21.98l-9.25-38.53C213.91,647.31,208.86,645.88,205.12,642.73z"/>
		<path class="st7" d="M88.16,587.52c2.7-2.45,5.66-5.12,9.24-8.16c-0.99-1.13-1.98-2.28-2.98-3.48
			c-11.83-14.21-21.6-30.51-29.22-48.67v76.77c0.75-0.37,1.5-0.73,2.23-1.12C76.53,598.05,81.41,593.63,88.16,587.52z"/>
		<path class="st7" d="M154.37,630.18c-1.88-1.34-3.81-2.83-5.78-4.46c-16.27-4.01-31.48-4.14-45.2-0.37
			c-11.63,3.2-20.2,8.58-28.5,13.79c-3.15,1.98-6.34,3.98-9.7,5.86v41.21h130.78c-7.07-13.29-15.32-25.83-24.66-37.4
			C165.45,641.54,159.83,635.49,154.37,630.18z"/>
		<path class="st7" d="M73.21,633.74l0.97,1.55c2.58-1.62,5.34-3.34,8.19-4.97l-0.91-1.59C78.58,630.38,75.8,632.11,73.21,633.74z"
			/>
		<path class="st7" d="M90.08,624.28l0.76,1.66c2.96-1.35,5.86-2.47,8.86-3.43l-0.56-1.74C96.07,621.76,93.1,622.91,90.08,624.28z"
			/>
		<path class="st7" d="M65.96,640.35l-0.77-1.3v1.74C65.46,640.64,65.7,640.5,65.96,640.35z"/>
		<path class="st7" d="M127.86,618.71c3.1,0.1,6.3,0.36,9.5,0.77l0.23-1.81c-3.26-0.42-6.52-0.68-9.68-0.78L127.86,618.71z"/>
		<path class="st7" d="M108.56,618.36l0.35,1.79c3.07-0.59,6.25-1.02,9.43-1.25l-0.14-1.82
			C114.95,617.33,111.71,617.76,108.56,618.36z"/>
		<path class="st7" d="M283.08,635.6l0.08,1.83c2.39-0.1,4.66-0.14,6.87-0.12c0.07-0.6,0.11-1.21,0.16-1.83
			C287.9,635.45,285.56,635.49,283.08,635.6z"/>
		<path class="st7" d="M196.57,633.75c2.74,0.47,5.41,1.51,7.93,3.09l0.97-1.55c-2.73-1.71-5.62-2.83-8.6-3.34L196.57,633.75z"/>
		<path class="st7" d="M265.23,637.22l0.23,1.81c3.21-0.41,6.1-0.73,8.84-0.99l-0.17-1.82C271.38,636.48,268.46,636.8,265.23,637.22
			z"/>
		<path class="st7" d="M184.84,633c-0.6,0.17-1.16,0.32-1.67,0.44c-1.29,0.3-2.65,0.46-4.04,0.46l0.01,1.83
			c1.53,0,3.03-0.17,4.45-0.51c0.53-0.12,1.11-0.28,1.74-0.46c0.82-0.23,1.74-0.48,2.74-0.7l-0.4-1.78
			C186.63,632.5,185.67,632.77,184.84,633z"/>
		<path class="st7" d="M251.57,639.13l-4.03,0.59l0.26,1.81l4.03-0.59c1.58-0.23,3.19-0.47,4.8-0.7l-0.26-1.81
			C254.76,638.66,253.16,638.9,251.57,639.13z"/>
		<path class="st7" d="M211.97,641.93c2.41,1.01,5.35,1.6,9.01,1.82l0.11-1.82c-3.44-0.2-6.19-0.75-8.41-1.68L211.97,641.93z"/>
		<path class="st7" d="M229.89,641.8l0.12,1.82c2.59-0.18,5.51-0.47,8.93-0.89l-0.22-1.81C235.33,641.34,232.44,641.63,229.89,641.8
			z"/>
		<path class="st7" d="M198.85,678.19l-1.59,0.9c1.32,2.34,2.61,4.73,3.86,7.13h2.07C201.79,683.52,200.33,680.82,198.85,678.19z"/>
		<path class="st7" d="M77.73,543.02c1.45,2.7,2.97,5.38,4.53,7.98l1.57-0.94c-1.54-2.57-3.05-5.23-4.48-7.9L77.73,543.02z"/>
		<path class="st7" d="M98.17,573.42c1.95,2.35,3.99,4.66,6.05,6.89l1.34-1.24c-2.04-2.2-4.05-4.49-5.99-6.82L98.17,573.42z"/>
		<path class="st7" d="M69.83,526.47c1.19,2.82,2.46,5.63,3.76,8.36l1.65-0.79c-1.29-2.71-2.54-5.49-3.73-8.29L69.83,526.47z"/>
		<path class="st7" d="M110.62,586.87c2.15,2.08,4.34,4.12,6.72,6.22l1.21-1.37c-2.36-2.09-4.54-4.1-6.66-6.17L110.62,586.87z"/>
		<path class="st7" d="M165.28,635.04c2.03,2.19,4.06,4.48,6.03,6.79l1.39-1.18c-1.99-2.34-4.03-4.64-6.08-6.85L165.28,635.04z"/>
		<path class="st7" d="M124.31,599.03c2.4,1.98,4.83,3.94,7.09,5.75l1.14-1.43c-2.26-1.81-4.68-3.76-7.07-5.73L124.31,599.03z"/>
		<path class="st7" d="M152.37,622.27c2.3,2.09,4.45,4.13,6.59,6.25l1.28-1.3c-2.16-2.14-4.33-4.2-6.65-6.3L152.37,622.27z"/>
		<path class="st7" d="M138.52,610.49c2.69,2.17,4.92,4.01,7.02,5.79l1.18-1.39c-2.11-1.79-4.35-3.64-7.05-5.82L138.52,610.49z"/>
		<path class="st7" d="M184.02,655.06c-1.79-2.47-3.65-4.93-5.52-7.32l-1.44,1.13c1.86,2.37,3.7,4.81,5.48,7.26L184.02,655.06z"/>
		<path class="st7" d="M66.44,517.96l1.71-0.64c-0.91-2.44-1.79-4.95-2.63-7.46c-0.17,1.57-0.26,3.15-0.3,4.76
			C65.63,515.73,66.03,516.85,66.44,517.96z"/>
		<path class="st7" d="M87.17,558.74c1.7,2.53,3.49,5.05,5.31,7.48l1.46-1.1c-1.8-2.41-3.57-4.9-5.25-7.41L87.17,558.74z"/>
		<path class="st7" d="M194.2,670.3c-1.59-2.59-3.26-5.19-4.95-7.72l-1.52,1.02c1.68,2.51,3.33,5.08,4.91,7.66L194.2,670.3z"/>
		<path class="st7" d="M223,590.36c0.32-2.79,0.68-5.35,1.1-7.83l-1.8-0.31c-0.43,2.51-0.79,5.11-1.11,7.93l-0.12,1.05l1.82,0.2
			L223,590.36z"/>
		<path class="st7" d="M220.33,600.25c-0.17,3-0.25,6.05-0.27,9.07l1.83,0.01c0.01-2.99,0.1-6.01,0.26-8.97L220.33,600.25z"/>
		
			<rect x="227.35" y="653.72" transform="matrix(0.9724 -0.2335 0.2335 0.9724 -147.4036 71.5061)" class="st7" width="1.83" height="9.03"/>
		
			<rect x="223.14" y="636.17" transform="matrix(0.9724 -0.2335 0.2335 0.9724 -143.4076 70.0278)" class="st7" width="1.83" height="9.03"/>
		<path class="st7" d="M222.75,627.25c-0.29-2.97-0.51-5.98-0.66-8.96l-1.83,0.09c0.14,3,0.37,6.05,0.66,9.05L222.75,627.25z"/>
		<path class="st7" d="M245.97,466.68l-0.31,1.01l1.75,0.53l0.31-0.99c0.58-1.86,1.22-3.73,1.88-5.59h-1.94
			C247.07,463.31,246.5,465,245.97,466.68z"/>
		<path class="st7" d="M242.26,498.81c0.1-1.45,0.19-2.86,0.3-4.26l-1.82-0.14c-0.11,1.4-0.2,2.82-0.3,4.28
			c-0.1,1.52-0.21,3.09-0.33,4.71l1.82,0.14C242.05,501.9,242.16,500.33,242.26,498.81z"/>
		<path class="st7" d="M241.09,512.54l-1.82-0.21c-0.33,2.95-0.73,5.86-1.21,8.89l1.8,0.29
			C240.36,518.46,240.76,515.52,241.09,512.54z"/>
		<path class="st7" d="M236.37,539.28c0.67-2.8,1.31-5.78,1.92-8.85l-1.79-0.35c-0.6,3.05-1.24,6-1.9,8.78L236.37,539.28z"/>
		<path class="st7" d="M245.08,476.86l-1.78-0.41c-0.69,3-1.23,5.93-1.65,8.94l1.81,0.25C243.87,482.68,244.4,479.81,245.08,476.86z
			"/>
		<path class="st7" d="M229.64,556.09l1.73,0.58c1.06-3.16,1.91-5.91,2.7-8.64l-1.76-0.5C231.54,550.24,230.68,552.96,229.64,556.09
			z"/>
		<path class="st7" d="M224.17,573.33l1.77,0.45c0.68-2.67,1.47-5.31,2.54-8.58l-1.74-0.57
			C225.66,567.94,224.86,570.62,224.17,573.33z"/>
		
			<rect x="231.57" y="671.28" transform="matrix(0.9724 -0.2335 0.2335 0.9724 -151.3864 72.9759)" class="st7" width="1.83" height="9.03"/>
		<path class="st7" d="M144.48,556.39l-0.96-1.56c-2.88,1.77-5.45,3.08-7.83,4.27l0.82,1.63
			C138.93,559.54,141.54,558.2,144.48,556.39z"/>
		<path class="st7" d="M244.01,510.89c2.9-0.33,5.93-0.86,8.99-1.57l-0.41-1.78c-3,0.7-5.95,1.21-8.79,1.53L244.01,510.89z"/>
		<path class="st7" d="M234.87,511.3l0.05-1.83c-2.84-0.08-5.63-0.38-8.38-0.9l-0.44-0.09l-0.35,1.79l0.53,0.1
			C229.05,510.9,231.93,511.21,234.87,511.3z"/>
		<path class="st7" d="M70.8,608.28l0.22-0.12l-0.85-1.62l-0.23,0.12c-1.55,0.82-3.14,1.6-4.74,2.36v2.01
			C67.09,610.16,68.97,609.25,70.8,608.28z"/>
		<path class="st7" d="M212.81,508.66c0.01,0,0.02,0,0.02,0c1.34,0,2.72,0.06,4.1,0.18l0.16-1.82c-1.43-0.13-2.87-0.19-4.26-0.19
			c-1.62-0.02-3.31,0.09-4.94,0.26l0.2,1.82C209.66,508.75,211.24,508.66,212.81,508.66z"/>
		<path class="st7" d="M286.6,495.68l-0.89-1.6c-2.69,1.49-5.37,2.89-7.96,4.16l0.8,1.64C281.18,498.6,283.88,497.18,286.6,495.68z"
			/>
		<path class="st7" d="M199.47,510.75l-0.57-1.73c-2.96,0.98-5.68,2.28-8.32,3.97l0.99,1.54
			C194.07,512.91,196.66,511.68,199.47,510.75z"/>
		<path class="st7" d="M270.29,503.64l-0.7-1.69c-2.84,1.18-5.66,2.25-8.39,3.15l0.58,1.73
			C264.54,505.92,267.41,504.84,270.29,503.64z"/>
		<path class="st7" d="M128.53,564.85l-0.88-1.6c-2.59,1.43-5.13,2.98-7.76,4.72l1.01,1.52
			C123.48,567.78,125.98,566.26,128.53,564.85z"/>
		<path class="st7" d="M172.1,532.94l-1.31-1.27c-2.29,2.37-4.31,4.39-6.36,6.36l1.26,1.32
			C167.75,537.37,169.79,535.34,172.1,532.94z"/>
		<path class="st7" d="M91.65,590.61l1.23,1.35c1.95-1.77,4.17-3.78,6.72-5.99l-1.2-1.38C95.83,586.82,93.61,588.83,91.65,590.61z"
			/>
		<path class="st7" d="M77.82,601.97l1.02,1.51c2.41-1.63,4.72-3.38,7.25-5.52l-1.18-1.4C82.44,598.66,80.18,600.38,77.82,601.97z"
			/>
		<path class="st7" d="M158.13,546.21l0.86-0.74l-1.2-1.38l-0.85,0.73c-2.16,1.85-4.15,3.47-6.08,4.95l1.11,1.45
			C153.92,549.72,155.94,548.08,158.13,546.21z"/>
		<path class="st7" d="M184.63,520.02l-1.25-1.34c-2.16,2.01-4.35,4.29-6.4,6.45l1.33,1.26C180.34,524.25,182.51,522,184.63,520.02z
			"/>
	</g>
</g>
</svg>
