<?xml version="1.0" encoding="utf-8"?>
<!-- Generator: Adobe Illustrator 23.0.5, SVG Export Plug-In . SVG Version: 6.00 Build 0)  -->
<svg version="1.1" id="Capa_1" xmlns="http://www.w3.org/2000/svg" xmlns:xlink="http://www.w3.org/1999/xlink" x="0px" y="0px"
	 viewBox="0 0 1200 1200" style="enable-background:new 0 0 1200 1200;" xml:space="preserve">
<style type="text/css">
	.st0{fill:#3C6B3A;}
	.st1{fill:#FFFDFE;}
	.st2{fill:none;stroke:#FFFFFF;stroke-width:13;stroke-miterlimit:10;}
	.st3{fill:#FFFFFF;stroke:#FFFFFF;stroke-width:5;stroke-miterlimit:10;}
	.st4{fill:none;stroke:#FFFFFF;stroke-width:8;stroke-miterlimit:10;}
	.st5{fill:#FFFFFF;}
	.st6{fill:none;stroke:#FFFFFF;stroke-width:11;stroke-miterlimit:10;}
	.st7{fill:#FEFFFD;}
</style>
<g>
	<path class="st0" d="M369.56,652.85l-2.62,5.65c-0.75,2.18-3.68,3.27-8.79,3.27h-19.83c-2.56,0-2.56-2.02,0-6.05l42.47-92.1
		c3.12-6.74,6.23-6.74,9.36,0l42.47,92.1c2.55,4.03,2.55,6.05,0,6.05h-19.83c-5.11,0-8.05-1.09-8.79-3.27l-2.62-5.65H369.56z
		 M391.54,631.53l-6.08-13.09l-6.08,13.09H391.54z"/>
	<path class="st0" d="M483.68,661.77c-31.18,0-46.77-16.52-46.77-49.57c0-33.05,15.59-49.57,46.77-49.57h28.81
		c2.62,0,3.93,1.42,3.93,4.26v16.85c0,2.38-1.31,3.77-3.93,4.17h-28.81c-12.41,0-18.62,8.1-18.62,24.29
		c0,16.2,6.21,24.29,18.62,24.29h14.22v-10.91h-10.19c-2.68-0.39-4.02-1.78-4.02-4.16v-16.85c0-2.84,1.34-4.26,4.02-4.26h34.14
		c2.62,0,3.93,1.42,3.93,4.26v52.94c-0.37,2.84-1.68,4.26-3.93,4.26H483.68z"/>
	<path class="st0" d="M608.76,628.46l23.2,27.26c3.8,4.03,3.8,6.05,0,6.05h-23.57c-3.24,0-6.17-1.09-8.79-3.27l-24.51-28.95h-2.53
		v27.46c0,3.18-1.43,4.76-4.3,4.76h-20.39c-2.25,0-3.37-1.42-3.37-4.26v-90.61c0-2.84,1.34-4.26,4.02-4.26h52.11
		c18.71,0,28.06,9.22,28.06,27.66v9.12C628.68,615.6,622.04,625.29,608.76,628.46 M572.56,605.76h21.7c4.05,0,6.08-2.05,6.08-6.15
		v-8.33c0-3.04-2-4.56-5.99-4.56h-21.79V605.76z"/>
	<path class="st0" d="M643.18,612.2c0-34.37,15.59-51.55,46.77-51.55c31.18,0,46.77,17.18,46.77,51.55
		c0,34.37-15.59,51.55-46.77,51.55C658.77,663.75,643.18,646.57,643.18,612.2 M689.96,636.98c12.41,0,18.61-8.26,18.61-24.78
		c0-16.52-6.21-24.79-18.61-24.79c-12.41,0-18.62,8.26-18.62,24.79C671.34,628.72,677.55,636.98,689.96,636.98"/>
	<path class="st0" d="M783.5,600.9l-0.09,56.61c0,2.38-1.34,3.8-4.02,4.26h-19.83c-2.25,0-3.59-1.42-4.02-4.26v-90.61
		c0-2.84,1.06-4.26,3.18-4.26h23.29c4.49,0,7.42,1.09,8.79,3.27l16.18,23l16.18-23c1.37-2.18,4.3-3.27,8.79-3.27h22.64
		c2.56,0,3.84,1.42,3.84,4.26v90.61c0,2.38-1.34,3.8-4.02,4.26h-20.02c-2.25,0-3.59-1.42-4.02-4.26V601l-16.09,21.41
		c-4.86,6.54-9.73,6.54-14.59,0L783.5,600.9z"/>
	<path class="st0" d="M900.34,652.85l-2.62,5.65c-0.75,2.18-3.68,3.27-8.79,3.27H869.1c-2.56,0-2.56-2.02,0-6.05l42.47-92.1
		c3.12-6.74,6.23-6.74,9.36,0l42.47,92.1c2.55,4.03,2.55,6.05,0,6.05h-19.83c-5.11,0-8.05-1.09-8.79-3.27l-2.62-5.65H900.34z
		 M922.32,631.53l-6.08-13.09l-6.08,13.09H922.32z"/>
	<path class="st0" d="M1028.31,629.55h-25.54v27.46c0,3.18-1.43,4.76-4.3,4.76h-20.39c-2.24,0-3.37-1.42-3.37-4.26v-90.61
		c0-2.84,1.34-4.26,4.02-4.26h52.11c18.71,0,28.06,9.22,28.06,27.66v9.12C1058.9,619.5,1048.71,629.55,1028.31,629.55
		 M1002.77,605.76h21.7c4.05,0,6.08-2.05,6.08-6.15v-8.33c0-3.04-2-4.56-5.99-4.56h-21.79V605.76z"/>
	<path class="st0" d="M1098.75,661.77h-20.77c-2.62,0-3.93-1.42-3.93-4.26v-16.85c0-2.38,1.31-3.76,3.93-4.16h41.91
		c3.99,0,5.99-1.32,5.99-3.97v-4.86c0-3.63-2.03-5.45-6.08-5.45l-17.68-0.1c-18.71,0-28.06-8.93-28.06-26.77v-5.95
		c0-17.84,8.76-26.77,26.29-26.77h44.62c2.62,0,3.93,1.42,3.93,4.26v16.85c0,2.38-1.31,3.77-3.93,4.17h-37.14
		c-4.06,0-6.08,1.52-6.08,4.56v4.37c0,3.5,2,5.25,5.99,5.25h7.48c25.57,0.13,38.57,9.88,39.01,29.24v2.18
		c0,18.44-10.13,27.89-30.4,28.35h-25.07V661.77z"/>
</g>
<g>
	<path class="st0" d="M47.56,739.76h195.26c34.58,0,62.61-28.16,62.61-62.9v-194.3H109.24c-34.07,0-61.69,27.75-61.69,61.97V739.76z
		"/>
	<g>
		<path class="st5" d="M72.87,654.03c8.62-2.61,18.38-5.57,30.06-6.96c12.57-1.49,25.6-0.89,38.89,1.77
			c-2.52-2.06-5.01-4.05-7.49-6.03c-9.13-7.3-17.87-14.29-26.85-23.56c-4.13,3.46-7.44,6.46-10.44,9.17
			c-7.01,6.35-12.54,11.36-22.7,16.73c-3.71,1.96-7.53,3.72-11.44,5.32v6.45C66.09,656.08,69.39,655.09,72.87,654.03z"/>
		<path class="st5" d="M92.09,622.95c2.98-2.7,6.27-5.68,10.37-9.12c-1.3-1.46-2.6-2.96-3.91-4.54
			c-15.13-18.17-26.9-39.75-35.12-64.3c-0.33,2.44-0.52,4.93-0.52,7.46v90.01c2.71-1.19,5.38-2.46,7.99-3.84
			C80.23,633.69,85.2,629.19,92.09,622.95z"/>
		<path class="st5" d="M248.81,532.43c-0.16,2.32-0.32,4.72-0.53,7.3c12.37-1.59,26.33-6.79,41.8-15.54v-26.33H255.3
			c-0.38,1.11-0.75,2.22-1.1,3.34C250.01,514.58,249.48,522.46,248.81,532.43z"/>
		<path class="st5" d="M244.78,564.52c-2.89,14.72-5.85,23.39-8.47,31.04c-2.9,8.49-5.41,15.83-6.95,29.37
			c-1.68,14.77-1.43,29.84,0.75,44.8l1,4.16c7.01-0.32,15.37-1.55,23.96-2.81c11.32-1.66,23.37-3.43,35.01-3.69V532.56
			c-15.58,8.37-29.78,13.26-42.55,14.65C246.95,552.14,246.11,557.77,244.78,564.52z"/>
		<path class="st5" d="M108.18,609.17c13.77-10.92,21.27-14.66,27.9-17.95c6.38-3.17,11.88-5.9,22.09-14.65
			c7.7-6.6,13.28-12.51,18.2-17.73c9.63-10.21,16.59-17.59,30.47-20.33c9.93-1.96,17.8-0.36,22.5,0.59c0.52,0.11,1.01,0.2,1.46,0.29
			c3.2,0.61,6.55,0.89,10.04,0.85c0.26-2.97,0.45-5.7,0.62-8.31c0.67-10.04,1.26-18.72,5.71-32.93c0.12-0.38,0.25-0.76,0.38-1.14
			H117.24c-22.66,0-42.07,13.94-50.23,33.74c7.93,28.3,20.42,52.85,37.19,72.98C105.54,606.18,106.86,607.7,108.18,609.17z"/>
		<path class="st5" d="M210.06,676.58l-0.31-0.26c-1.36-1.17-4.97-4.29-10.29-5.19c-4.14-0.7-7.46,0.22-10.13,0.96
			c-0.67,0.19-1.28,0.35-1.85,0.49c-3.26,0.77-6.69,0.78-10.32,0.06c1.56,1.81,3.12,3.68,4.72,5.65
			c11.4,14.13,21.26,29.63,29.4,46.17h23.64c0.25,0,0.5-0.02,0.75-0.02l-10.37-43.17C218.96,680.99,213.73,679.67,210.06,676.58z"/>
		<path class="st5" d="M232.86,681.17l10.25,42.67c24.73-3.7,44.1-23.88,46.68-49.06c-11.08,0.29-22.72,2-33.64,3.6
			C247.76,679.61,239.86,680.77,232.86,681.17z"/>
		<path class="st5" d="M229.34,593.17c2.54-7.43,5.42-15.85,8.21-30.07c1.17-5.95,1.95-11.01,2.5-15.48
			c-3.68-0.01-7.22-0.33-10.63-0.98c-0.48-0.09-0.99-0.2-1.55-0.31c-4.43-0.9-11.12-2.25-19.61-0.58
			c-11.56,2.28-17.52,8.6-26.53,18.15c-5.04,5.35-10.76,11.41-18.76,18.27c-10.9,9.34-17.07,12.41-23.6,15.66
			c-6.53,3.24-13.29,6.61-26.13,16.75c8.54,8.75,16.94,15.47,25.71,22.47c7.98,6.38,16.12,12.9,24.7,21.21
			c8.78,6.13,16.22,8.54,22.17,7.14c0.48-0.11,1-0.26,1.57-0.42c3.01-0.84,7.57-2.1,13.33-1.12c7.35,1.24,12.26,5.49,13.88,6.88
			l0.24,0.21c1.94,1.64,4.94,2.51,8.69,2.85l-0.64-2.67l-0.02-0.16c-2.29-15.65-2.56-31.41-0.8-46.87
			C223.67,609.75,226.3,602.07,229.34,593.17z"/>
		<path class="st5" d="M158.87,663.92c-2-1.42-4.06-3.01-6.17-4.77c-16.82-5.01-33.27-6.61-48.91-4.76
			c-11.03,1.31-20.46,4.17-28.79,6.69c-4.16,1.26-8.16,2.47-12.11,3.44v59.93h140.13c-7.57-14.83-16.58-28.77-26.89-41.54
			C170.16,675.49,164.43,669.33,158.87,663.92z"/>
	</g>
</g>
</svg>
